<svg width="204" height="204" viewBox="0 0 204 204" fill="none" xmlns="http://www.w3.org/2000/svg">
<circle cx="102" cy="102" r="102" fill="#E9EDFB"/>
<path fill-rule="evenodd" clip-rule="evenodd" d="M71.7384 72.6515L72.1075 74.92C75.233 94.3161 90.433 109.524 109.82 112.651L112.089 113.017C113.042 113.17 113.042 114.542 112.089 114.696L109.82 115.062C90.4323 118.189 75.232 133.398 72.1075 152.795L71.7384 155.066C71.5841 156.02 70.2126 156.02 70.0592 155.066L69.6933 152.795C66.568 133.4 51.3697 118.193 31.9845 115.064L29.7155 114.698C28.7615 114.545 28.7615 113.173 29.7155 113.019L31.9845 112.653C51.3717 109.526 66.5719 94.317 69.6966 74.92L70.0625 72.649C70.2159 71.6978 71.5874 71.6978 71.7384 72.6515ZM133.262 48.941L132.896 51.2119C129.77 70.6091 114.568 85.817 95.1804 88.9427L92.9114 89.3088C91.9582 89.4622 91.9582 90.8345 92.9114 90.9879L95.1804 91.354C114.568 94.4813 129.768 109.69 132.892 129.087L133.258 131.358C133.413 132.312 134.784 132.312 134.938 131.358L135.303 129.087C138.429 109.691 153.629 94.4837 173.015 91.3564L175.284 90.9904C176.238 90.8369 176.238 89.4647 175.284 89.3112L173.015 88.9452C153.629 85.8179 138.429 70.6104 135.303 51.2144L134.938 48.9435C134.784 47.9873 133.413 47.9873 133.262 48.941ZM91.7203 32.4069L91.5119 33.6954C89.7375 44.7094 81.1063 53.3449 70.0977 55.1202L68.809 55.3286C68.2676 55.4156 68.2676 56.1945 68.809 56.2823L70.0977 56.49C81.1045 58.2671 89.7337 66.9022 91.5078 77.9148L91.7162 79.2041C91.8031 79.7458 92.5816 79.7458 92.6694 79.2041L92.8769 77.9148C94.653 66.9039 103.282 58.2709 114.287 56.4941L115.576 56.2864C116.117 56.1986 116.117 55.4197 115.576 55.3328L114.287 55.1243C103.281 53.3477 94.6527 44.7146 92.8769 33.7036L92.6735 32.4069C92.5857 31.8644 91.8073 31.8644 91.7203 32.4069ZM112.326 124.804L112.119 126.093C110.343 137.104 101.714 145.737 90.7089 147.514L89.4201 147.722C88.8787 147.809 88.8787 148.588 89.4201 148.675L90.7089 148.884C101.714 150.66 110.343 159.293 112.119 170.304L112.326 171.594C112.414 172.135 113.193 172.135 113.28 171.594L113.488 170.304C115.264 159.293 123.892 150.66 134.898 148.884L136.187 148.675C136.728 148.588 136.728 147.809 136.187 147.722L134.898 147.514C123.893 145.737 115.264 137.104 113.488 126.093L113.28 124.804C113.193 124.261 112.414 124.262 112.326 124.804Z" fill="#2322F0"/>
</svg>
